<svg xmlns="http://www.w3.org/2000/svg" viewBox="0 0 64 64" role="img" aria-label="Tabla elementos">
  <defs>
    <linearGradient id="bg" x1="0" y1="0" x2="1" y2="1">
      <stop offset="0" stop-color="#111827" />
      <stop offset="0.55" stop-color="#1f2937" />
      <stop offset="1" stop-color="#030712" />
    </linearGradient>
    <linearGradient id="cellA" x1="0" y1="0" x2="1" y2="1">
      <stop offset="0" stop-color="#7dd3fc" />
      <stop offset="1" stop-color="#2563eb" />
    </linearGradient>
    <linearGradient id="cellB" x1="0" y1="0" x2="1" y2="1">
      <stop offset="0" stop-color="#fde68a" />
      <stop offset="1" stop-color="#f97316" />
    </linearGradient>
    <linearGradient id="cellC" x1="0" y1="0" x2="1" y2="1">
      <stop offset="0" stop-color="#a7f3d0" />
      <stop offset="1" stop-color="#16a34a" />
    </linearGradient>
  </defs>

  <rect width="64" height="64" rx="0" fill="url(#bg)" />
  <g stroke="#f8fafc" stroke-opacity="0.28" stroke-width="1">
    <rect x="8" y="8" width="14" height="14" rx="0" fill="url(#cellA)" />
    <rect x="25" y="8" width="14" height="14" rx="0" fill="#4b5563" />
    <rect x="42" y="8" width="14" height="14" rx="0" fill="url(#cellB)" />
    <rect x="8" y="25" width="14" height="14" rx="0" fill="#6d5f9b" />
    <rect x="25" y="25" width="14" height="14" rx="0" fill="url(#cellC)" />
    <rect x="42" y="25" width="14" height="14" rx="0" fill="#64748b" />
    <rect x="8" y="42" width="14" height="14" rx="0" fill="#b45309" />
    <rect x="25" y="42" width="14" height="14" rx="0" fill="#7c3aed" />
    <rect x="42" y="42" width="14" height="14" rx="0" fill="#0f766e" />
  </g>

  <text x="15" y="18" text-anchor="middle" font-family="Inter, Arial, sans-serif" font-size="8" font-weight="800" fill="#ffffff">T</text>
  <text x="32" y="35" text-anchor="middle" font-family="Inter, Arial, sans-serif" font-size="8" font-weight="800" fill="#ffffff">E</text>
  <path d="M10 60h44" stroke="#7dd3fc" stroke-width="2" opacity="0.65" />
</svg>
